<svg width="19" height="20" viewBox="0 0 19 20" fill="none" xmlns="http://www.w3.org/2000/svg">
<path d="M4.7811 7V6C4.7811 4.67392 5.27868 3.40215 6.16438 2.46447C7.05008 1.52678 8.25134 1 9.50391 1C10.7565 1 11.9577 1.52678 12.8434 2.46447C13.7291 3.40215 14.2267 4.67392 14.2267 6V7M16.216 7H2.79185C2.53255 7.00016 2.27639 7.06 2.0411 7.17536C1.80581 7.29072 1.59702 7.45886 1.42919 7.66812C1.26136 7.87738 1.1385 8.12276 1.06912 8.38727C0.99975 8.65178 0.985517 8.92909 1.02741 9.2L2.32524 17.418C2.39492 17.8597 2.61022 18.2611 2.9329 18.5507C3.25557 18.8403 3.66475 18.9995 4.08779 19H14.9238C15.3462 18.9986 15.7545 18.8389 16.0764 18.5494C16.3983 18.2599 16.613 17.8591 16.6826 17.418L17.9804 9.2C18.0223 8.92909 18.0081 8.65178 17.9387 8.38727C17.8693 8.12276 17.7465 7.87738 17.5786 7.66812C17.4108 7.45886 17.202 7.29072 16.9667 7.17536C16.7314 7.06 16.4753 7.00016 16.216 7V7Z" stroke="black" stroke-width="1.5" stroke-linecap="round" stroke-linejoin="round"/>
</svg>
