<svg width="5" height="8" viewBox="0 0 5 8" fill="none" xmlns="http://www.w3.org/2000/svg">
<path d="M0.163104 1.30612C0.0453197 1.14892 -0.0118633 0.954467 0.0020527 0.758459C0.0159687 0.562451 0.100049 0.378046 0.238859 0.239098C0.377669 0.10015 0.561891 0.0159846 0.757704 0.00205478C0.953517 -0.0118751 1.14778 0.0453653 1.30482 0.163267L4.56688 3.42857C4.7163 3.58117 4.8 3.78632 4.8 4C4.8 4.21368 4.7163 4.41883 4.56688 4.57143L1.30482 7.83673C1.14778 7.95464 0.953516 8.01187 0.757703 7.99794C0.561891 7.98401 0.377668 7.89985 0.238859 7.7609C0.100049 7.62195 0.0159683 7.43755 0.00205231 7.24154C-0.0118637 7.04553 0.0453194 6.85108 0.163103 6.69388L2.84615 4L0.154948 1.30612H0.163104Z" fill="#6D6C79"/>
</svg>
