<svg width="21" height="18" viewBox="0 0 21 18" fill="none" xmlns="http://www.w3.org/2000/svg">
<path d="M1.35698 3.89294C1.59266 3.32437 1.9381 2.80776 2.37358 2.3726C2.80906 1.93743 3.32604 1.59224 3.89502 1.35673C4.464 1.12122 5.07382 1 5.68968 1C6.30554 1 6.91536 1.12122 7.48434 1.35673C8.05332 1.59224 8.5703 1.93743 9.00578 2.3726L10.3793 3.74515L11.7529 2.3726C12.6323 1.49375 13.8252 1.00001 15.069 1.00001C16.3127 1.00001 17.5056 1.49375 18.385 2.3726C19.2645 3.25145 19.7586 4.44343 19.7586 5.68631C19.7586 6.92919 19.2645 8.12117 18.385 9.00002L10.3793 17L2.37358 9.00002C1.9381 8.56486 1.59266 8.04825 1.35698 7.47968C1.1213 6.91111 1 6.30172 1 5.68631C1 5.07089 1.1213 4.46151 1.35698 3.89294Z" stroke="#6D6C79" stroke-opacity="0.8" stroke-width="2" stroke-linecap="round" stroke-linejoin="round"/>
</svg>
