<svg width="66" height="66" viewBox="0 0 66 66" fill="none" xmlns="http://www.w3.org/2000/svg">
<rect width="66" height="66" rx="33" fill="#0076C0"/>
<path d="M21.4492 33L24.0159 30.4333M24.0159 30.4333L32.9992 21.45L41.9826 30.4333M24.0159 30.4333V43.2666C24.0159 43.607 24.1511 43.9334 24.3918 44.1741C24.6324 44.4147 24.9589 44.55 25.2992 44.55H29.1492M41.9826 30.4333L44.5492 33M41.9826 30.4333V43.2666C41.9826 43.607 41.8473 43.9334 41.6067 44.1741C41.366 44.4147 41.0396 44.55 40.6992 44.55H36.8492M29.1492 44.55C29.4896 44.55 29.816 44.4147 30.0567 44.1741C30.2973 43.9334 30.4326 43.607 30.4326 43.2666V38.1333C30.4326 37.7929 30.5678 37.4665 30.8084 37.2258C31.0491 36.9852 31.3755 36.85 31.7159 36.85H34.2826C34.6229 36.85 34.9493 36.9852 35.19 37.2258C35.4307 37.4665 35.5659 37.7929 35.5659 38.1333V43.2666C35.5659 43.607 35.7011 43.9334 35.9418 44.1741C36.1824 44.4147 36.5089 44.55 36.8492 44.55M29.1492 44.55H36.8492" stroke="white" stroke-width="1.5" stroke-linecap="round" stroke-linejoin="round"/>
</svg>
