<svg width="66" height="66" viewBox="0 0 66 66" fill="none" xmlns="http://www.w3.org/2000/svg">
<rect width="66" height="66" rx="33" fill="#0076C0"/>
<path d="M47.6446 40.0863L48.657 42.8145C48.8753 43.404 48.5684 44.059 47.9704 44.2742L29.5305 50.9294C28.9273 51.1478 28.2661 50.8421 28.0489 50.2526L27.0365 47.5244C27.934 47.2 28.3937 46.2185 28.0647 45.3327C27.7357 44.4479 26.7434 43.9935 25.8449 44.3158L25.2554 42.7282C24.725 41.2986 23.5059 40.2246 22.0042 39.8669C21.8176 39.8212 21.6657 39.685 21.6003 39.5093L16.0523 24.5645C15.8899 24.1226 16.1177 23.6308 16.568 23.4676L39.8862 15.0522C40.3376 14.89 40.8332 15.1187 40.9977 15.5616L46.5457 30.5054C46.6122 30.6811 46.5858 30.8817 46.4709 31.0356C45.5608 32.2635 45.3341 33.8605 45.8645 35.2901L46.4551 36.8778M47.6446 40.0863C46.7451 40.4107 45.7496 39.9553 45.4216 39.0684C45.0915 38.1836 45.5534 37.2032 46.4551 36.8778M47.6446 40.0863L37.3395 43.8053M46.4551 36.8778L36.1489 40.5978M38.8992 15.4088L17.5572 23.111M36.1489 40.5978C37.0484 40.2734 38.0418 40.7278 38.3687 41.6136C38.6988 42.4995 38.239 43.4809 37.3395 43.8053M36.1489 40.5978C35.2483 40.9222 34.7885 41.9027 35.1165 42.7875C35.4455 43.6743 36.4389 44.1297 37.3395 43.8053M36.0582 40.6301L25.7542 44.3481M37.2488 43.8376L26.9469 47.5566M46.5742 30.7788L22.0432 39.633" stroke="white" stroke-width="1.5" stroke-linecap="round" stroke-linejoin="round"/>
</svg>
