<svg width="17" height="18" viewBox="0 0 17 18" fill="none" xmlns="http://www.w3.org/2000/svg">
<path d="M4.3575 6.33333V5.44444C4.3575 4.2657 4.7998 3.13524 5.58708 2.30175C6.37437 1.46825 7.44216 1 8.55556 1C9.66895 1 10.7367 1.46825 11.524 2.30175C12.3113 3.13524 12.7536 4.2657 12.7536 5.44444V6.33333M14.5218 6.33333H2.58928C2.3588 6.33348 2.13109 6.38666 1.92195 6.48921C1.7128 6.59175 1.52721 6.74121 1.37803 6.92721C1.22884 7.11322 1.11964 7.33134 1.05797 7.56646C0.996306 7.80158 0.983654 8.04808 1.02089 8.28889L2.17452 15.5938C2.23646 15.9864 2.42783 16.3432 2.71466 16.6006C3.00148 16.858 3.3652 16.9996 3.74123 17H13.3732C13.7487 16.9987 14.1116 16.8568 14.3977 16.5995C14.6839 16.3421 14.8747 15.9858 14.9366 15.5938L16.0902 8.28889C16.1275 8.04808 16.1148 7.80158 16.0531 7.56646C15.9915 7.33134 15.8823 7.11322 15.7331 6.92721C15.5839 6.74121 15.3983 6.59175 15.1892 6.48921C14.98 6.38666 14.7523 6.33348 14.5218 6.33333V6.33333Z" stroke="#2C8F35" stroke-width="1.3" stroke-linecap="round" stroke-linejoin="round"/>
</svg>
