<svg width="21" height="19" viewBox="0 0 21 19" fill="none" xmlns="http://www.w3.org/2000/svg">
<path d="M1.36158 4.02312C1.60029 3.42897 1.95018 2.88911 2.39126 2.43436C2.83234 1.97961 3.35597 1.61889 3.93227 1.37278C4.50857 1.12667 5.12624 1 5.75002 1C6.37381 1 6.99148 1.12667 7.56778 1.37278C8.14408 1.61889 8.66771 1.97961 9.10879 2.43436L10.5 3.86868L11.8912 2.43436C12.782 1.51596 13.9902 1.00001 15.25 1.00001C16.5098 1.00001 17.718 1.51596 18.6088 2.43436C19.4996 3.35276 20 4.59838 20 5.89719C20 7.196 19.4996 8.44162 18.6088 9.36002L10.5 17.72L2.39126 9.36002C1.95018 8.90528 1.60029 8.36542 1.36158 7.77126C1.12286 7.17711 1 6.5403 1 5.89719C1 5.25408 1.12286 4.61727 1.36158 4.02312Z" stroke="#D61818" stroke-width="2" stroke-linecap="round" stroke-linejoin="round"/>
<path d="M8.14286 11.8641C8.00531 11.9622 7.83516 12.0099 7.66365 11.9983C7.49214 11.9867 7.33079 11.9166 7.20921 11.801C7.08763 11.6853 7.01399 11.5318 7.0018 11.3686C6.98961 11.2054 7.03969 11.0435 7.14286 10.9126L10 8.19427C10.1335 8.06975 10.313 8 10.5 8C10.687 8 10.8665 8.06975 11 8.19427L13.8571 10.9126C13.9603 11.0435 14.0104 11.2054 13.9982 11.3686C13.986 11.5318 13.9124 11.6853 13.7908 11.801C13.6692 11.9166 13.5079 11.9867 13.3363 11.9983C13.1648 12.0099 12.9947 11.9622 12.8571 11.8641L10.5 9.62821L8.14286 11.8709L8.14286 11.8641Z" fill="#D61818"/>
<path d="M12.8571 5.13592C12.9947 5.03777 13.1648 4.99011 13.3363 5.00171C13.5079 5.01331 13.6692 5.08337 13.7908 5.19905C13.9124 5.31472 13.986 5.46824 13.9982 5.63142C14.0104 5.7946 13.9603 5.95648 13.8571 6.08735L11 8.80573C10.8665 8.93025 10.687 9 10.5 9C10.313 9 10.1335 8.93025 10 8.80573L7.14286 6.08735C7.03969 5.95648 6.98961 5.7946 7.0018 5.63142C7.01399 5.46824 7.08763 5.31472 7.20921 5.19905C7.33079 5.08337 7.49215 5.01331 7.66365 5.00171C7.83516 4.99011 8.00531 5.03777 8.14286 5.13592L10.5 7.37179L12.8571 5.12912L12.8571 5.13592Z" fill="#D61818"/>
</svg>
