<svg width="14" height="14" viewBox="0 0 14 14" fill="none" xmlns="http://www.w3.org/2000/svg">
<path fill-rule="evenodd" clip-rule="evenodd" d="M10.9274 0C11.2649 0 11.5886 0.134088 11.8273 0.372775L13.6272 2.17268C13.8659 2.41137 14 2.73508 14 3.07264V12.0909C14 13.1453 13.1453 14 12.0909 14H1.90909C0.854732 14 0 13.1453 0 12.0909V1.90909C0 0.854732 0.854732 0 1.90909 0H10.9274ZM1.90909 1.27273C1.55764 1.27273 1.27273 1.55764 1.27273 1.90909V12.0909C1.27273 12.4424 1.55764 12.7273 1.90909 12.7273H2.54545V8.90909C2.54545 7.8547 3.40019 7 4.45455 7H9.54545C10.5998 7 11.4545 7.8547 11.4545 8.90909V12.7273H12.0909C12.4424 12.7273 12.7273 12.4424 12.7273 12.0909V3.709C12.7273 3.37145 12.5932 3.04773 12.3545 2.80904L11.191 1.6455C10.9523 1.40682 10.6285 1.27273 10.291 1.27273H10.1818V2.54545C10.1818 3.59981 9.32712 4.45455 8.27273 4.45455H5.72727C4.67291 4.45455 3.81818 3.59981 3.81818 2.54545V1.27273H1.90909ZM10.1818 12.7273V8.90909C10.1818 8.55763 9.89692 8.27273 9.54545 8.27273H4.45455C4.10309 8.27273 3.81818 8.55763 3.81818 8.90909V12.7273H10.1818ZM5.09091 1.27273H8.90909V2.54545C8.90909 2.89691 8.62419 3.18182 8.27273 3.18182H5.72727C5.37582 3.18182 5.09091 2.89691 5.09091 2.54545V1.27273Z" fill="#6F6F6F"/>
</svg>
