<svg width="231" height="37" viewBox="0 0 231 37" fill="none" xmlns="http://www.w3.org/2000/svg">
<path d="M15.9572 0.356201H24.0682L12.0671 18.3236L20.0436 30.3214H25.0053V36.3562H15.9572L0 18.256L15.9572 0.356201Z" fill="white"/>
<path d="M39.9566 0.356201H31.8399L43.8451 18.3236L35.8685 30.3214H30.9053V36.3562H39.9566L55.9122 18.256L39.9566 0.356201Z" fill="white"/>
<path d="M30.972 26.3039V18.3233H37.8795L32.9154 10.3435H22.9955L18.0322 18.3233H24.9389V26.3039H30.972Z" fill="white"/>
<path d="M49.0346 31.3292C49.0346 29.0932 50.8517 27.2639 53.095 27.2639C55.3358 27.2639 57.1603 29.0932 57.1603 31.3292C57.1603 33.57 55.3358 35.3912 53.095 35.3912C50.8517 35.3912 49.0346 33.57 49.0346 31.3292ZM48.5815 31.3292C48.5815 33.821 50.6016 35.8451 53.095 35.8451C55.586 35.8451 57.6101 33.821 57.6101 31.3292C57.6101 28.8382 55.586 26.8109 53.095 26.8109C50.6016 26.8109 48.5815 28.8382 48.5815 31.3292Z" fill="white"/>
<path d="M53.3645 30.9608C53.6644 30.9608 53.8966 30.9135 54.071 30.8052C54.2421 30.7049 54.3293 30.5183 54.3293 30.2437C54.3293 29.9553 54.2038 29.7556 53.9683 29.6497C53.8355 29.5959 53.6676 29.5658 53.4509 29.5658H51.9027V30.9608H53.3645ZM51.2549 29.0801H53.4379C53.794 29.0801 54.0922 29.1266 54.322 29.2211C54.7661 29.3882 54.991 29.7182 54.991 30.1875C54.991 30.4336 54.9282 30.6332 54.8133 30.7881C54.6927 30.9502 54.5306 31.0733 54.3138 31.1629C54.498 31.2322 54.6373 31.3161 54.7302 31.4245C54.8272 31.5271 54.8785 31.6974 54.8899 31.937L54.9136 32.4797C54.9209 32.6386 54.9347 32.7624 54.9616 32.8366C54.9983 32.9678 55.0659 33.0542 55.1653 33.0908V33.1796H54.3725C54.3538 33.1454 54.3375 33.0973 54.322 33.0427C54.3097 32.9882 54.2992 32.8757 54.2951 32.7201L54.2421 32.0356C54.2283 31.7675 54.1117 31.5874 53.9064 31.4962C53.7842 31.4473 53.5927 31.4245 53.3352 31.4245H51.9027V33.1796H51.2549V29.0801Z" fill="white"/>
<path d="M129.929 16.7518V21.605H133.171V26.1397H126.898V10.5867H133.171V13.6269H139.524V5.72772H120.547V31.0019H139.524V16.7518H129.929Z" fill="white"/>
<path d="M84.4491 5.72748L76.6812 15.0656V5.72748H70.3311V31.0024H76.6812V21.6447L84.4654 31.0024H95.4919V5.72748H84.4491ZM89.1394 27.7373L81.3397 18.3576L89.1394 8.98035V27.7373Z" fill="white"/>
<path d="M111.184 5.72743V18.1506L104.919 5.72009V5.72743H98.564V31.0024H104.919V18.5719L111.183 30.9959L111.184 30.9682V31.0024H117.535V5.72743H111.184Z" fill="white"/>
<path d="M224.26 5.72743L219.599 14.9434L214.957 5.72743H205.403V18.1506L199.134 5.72009V5.72743H192.778V31.0024H199.134V18.5719L205.403 30.9959V30.9682V31.0024H211.759V12.2731L216.387 21.4279V31.0024H222.739V21.5982L230.769 5.72743H224.26Z" fill="white"/>
<path d="M190.652 18.3671C190.652 10.4916 184.278 4.10486 176.405 4.10486C174.027 4.10486 171.792 4.70133 169.818 5.72722H145.662V10.5862H152.008V31.0022H158.362V10.5862H164.465C163.014 12.8246 162.159 15.4907 162.159 18.3671C162.159 21.2623 163.026 23.9497 164.513 26.2003H163.006V30.9378H174.012V26.1693H172.145L167.846 18.328L172.145 10.4843H180.734L185.025 18.328L180.734 26.1693H178.698V30.9378H189.742V26.2003H188.304C189.787 23.9497 190.652 21.2623 190.652 18.3671Z" fill="white"/>
</svg>
