<svg width="54" height="56" viewBox="0 0 54 56" fill="none" xmlns="http://www.w3.org/2000/svg">
<path d="M54 6C54 2.68629 51.3137 -2.34843e-07 48 -5.24537e-07L0 -4.72083e-06L-4.89568e-06 56L48 56C51.3137 56 54 53.3137 54 50L54 6Z" fill="#0076C0"/>
<path d="M40.6446 35.0863L41.657 37.8145C41.8753 38.404 41.5684 39.059 40.9704 39.2742L22.5305 45.9294C21.9273 46.1478 21.2661 45.8421 21.0489 45.2526L20.0365 42.5244C20.934 42.2 21.3937 41.2185 21.0647 40.3327C20.7357 39.4479 19.7434 38.9935 18.8449 39.3158L18.2554 37.7282C17.725 36.2986 16.5059 35.2246 15.0042 34.8669C14.8176 34.8212 14.6657 34.685 14.6003 34.5093L9.05232 19.5645C8.88992 19.1226 9.1177 18.6308 9.56799 18.4676L32.8862 10.0522C33.3376 9.88998 33.8332 10.1187 33.9977 10.5616L39.5457 25.5054C39.6122 25.6811 39.5858 25.8817 39.4709 26.0356C38.5608 27.2635 38.3341 28.8605 38.8645 30.2901L39.4551 31.8778M40.6446 35.0863C39.7451 35.4107 38.7496 34.9553 38.4216 34.0684C38.0915 33.1836 38.5534 32.2032 39.4551 31.8778M40.6446 35.0863L30.3395 38.8053M39.4551 31.8778L29.1489 35.5978M31.8992 10.4088L10.5572 18.111M29.1489 35.5978C30.0484 35.2734 31.0418 35.7278 31.3687 36.6136C31.6988 37.4995 31.239 38.4809 30.3395 38.8053M29.1489 35.5978C28.2483 35.9222 27.7885 36.9027 28.1165 37.7875C28.4455 38.6743 29.4389 39.1297 30.3395 38.8053M29.0582 35.6301L18.7542 39.3481M30.2488 38.8376L19.9469 42.5566M39.5742 25.7788L15.0432 34.633" stroke="white" stroke-width="1.5" stroke-linecap="round" stroke-linejoin="round"/>
</svg>
