<svg width="66" height="66" viewBox="0 0 66 66" fill="none" xmlns="http://www.w3.org/2000/svg">
<rect width="66" height="66" rx="33" fill="#0076C0"/>
<path d="M21.4492 21.4527V28.6706H22.2895M22.2895 28.6706C23.2479 26.3004 24.9657 24.3152 27.1737 23.026C29.3817 21.7368 31.9551 21.2165 34.4906 21.5467C37.026 21.8769 39.3803 23.0389 41.1844 24.8505C42.9885 26.6622 44.1404 29.0212 44.4597 31.5577M22.2895 28.6706H28.668M44.5492 44.55V37.332H43.7104M43.7104 37.332C42.7506 39.7008 41.0323 41.6845 38.8245 42.9725C36.6167 44.2606 34.0441 44.7802 31.5094 44.4502C28.9747 44.1201 26.621 42.9589 24.8168 41.1485C23.0126 39.338 21.8598 36.9805 21.5387 34.4449M43.7104 37.332H37.3305" stroke="white" stroke-width="1.5" stroke-linecap="round" stroke-linejoin="round"/>
</svg>
